<svg width="69" height="35" viewBox="0 0 69 35" fill="none" xmlns="http://www.w3.org/2000/svg">
<g clip-path="url(#clip0_49_189)">
<path d="M34.7429 2.55102C43.9463 2.55102 54.5046 6.22449 65.5743 17.2449C65.5743 17.2449 53.2008 32.4235 34.8196 32.4235C25.6162 32.4235 14.93 28.6224 3.50241 17.2449C3.50241 17.2449 16.3361 2.55102 34.7429 2.55102ZM34.7429 0C15.4157 0 2.1219 14.949 1.55947 15.5867L0 17.3724L1.68729 19.0561C12.2712 29.6173 23.4176 35 34.794 35C54.1723 35 67.0059 19.5408 67.5428 18.8776L69 17.0918L67.3638 15.4592C57.0867 5.20408 46.1193 0 34.7429 0Z" fill="#FCFBFB"/>
<path d="M34.5391 3.06127C42.3109 3.06127 48.5999 9.33678 48.5999 17.0919C48.5999 24.847 42.3109 31.1225 34.5391 31.1225C26.7674 31.1225 20.4784 24.847 20.4784 17.0919C20.4784 9.33678 26.7674 3.06127 34.5391 3.06127ZM34.5391 0.510254C25.3613 0.510254 17.9219 7.95923 17.9219 17.0919C17.9219 26.2245 25.3869 33.6735 34.5391 33.6735C43.6914 33.6735 51.1564 26.2245 51.1564 17.0919C51.1564 7.95923 43.6914 0.510254 34.5391 0.510254Z" fill="#FCFBFB"/>
<path d="M34.5383 6.8877C33.5157 6.8877 32.5698 7.09178 31.6495 7.34688C32.8255 8.1377 33.5413 9.54076 33.3112 11.0459C33.0044 13.1122 31.0615 14.5152 28.9907 14.2091C27.508 13.9795 26.3831 12.9081 25.9741 11.5561C24.9514 13.1377 24.3379 15.051 24.3379 17.0918C24.3379 22.7295 28.914 27.2959 34.5639 27.2959C40.2138 27.2959 44.7899 22.7295 44.7899 17.0918C44.7899 11.454 40.2138 6.8877 34.5639 6.8877H34.5383Z" fill="#FCFBFB"/>
</g>
<defs>
<clipPath id="clip0_49_189">
<rect width="69" height="35" fill="white"/>
</clipPath>
</defs>
</svg>
