<svg width="23" height="21" viewBox="0 0 23 21" fill="none" xmlns="http://www.w3.org/2000/svg">
<mask id="path-1-inside-1_189_103" fill="white">
<path d="M3.00296 7.48471C3.22269 14.9816 11.454 18.609 19.2784 20.1089C22.0873 20.6474 23.5096 17.079 21.9672 14.6704C21.2617 13.5687 20.7821 12.5335 20.4791 11.5753C19.6856 9.06593 17.1201 5 14.4883 5H5.70009C4.25506 5 2.96063 6.0403 3.00296 7.48471Z"/>
</mask>
<path d="M3.00296 7.48471C3.22269 14.9816 11.454 18.609 19.2784 20.1089C22.0873 20.6474 23.5096 17.079 21.9672 14.6704C21.2617 13.5687 20.7821 12.5335 20.4791 11.5753C19.6856 9.06593 17.1201 5 14.4883 5H5.70009C4.25506 5 2.96063 6.0403 3.00296 7.48471Z" fill="#6E9FE5"/>
<path d="M19.2784 20.1089L18.9018 22.0732L18.9018 22.0732L19.2784 20.1089ZM3.00296 7.48471L1.00382 7.5433L3.00296 7.48471ZM20.4791 11.5753L22.3861 10.9723L22.3861 10.9723L20.4791 11.5753ZM21.9672 14.6704L23.6515 13.5919L23.6515 13.5919L21.9672 14.6704ZM19.6549 18.1447C15.8686 17.4188 12.1458 16.2036 9.39427 14.3789C6.68339 12.5812 5.08714 10.3275 5.0021 7.42611L1.00382 7.5433C1.13851 12.1389 3.76779 15.4473 7.1836 17.7125C10.5587 19.9507 14.8639 21.2991 18.9018 22.0732L19.6549 18.1447ZM5.70009 7H14.4883V3H5.70009V7ZM18.5722 12.1783C18.9334 13.3208 19.4925 14.5147 20.283 15.749L23.6515 13.5919C23.0308 12.6227 22.6308 11.7462 22.3861 10.9723L18.5722 12.1783ZM14.4883 7C14.8322 7 15.6119 7.35308 16.6145 8.5999C17.5287 9.73686 18.2503 11.1602 18.5722 12.1783L22.3861 10.9723C21.9145 9.48105 20.9566 7.61673 19.7317 6.09338C18.5952 4.67989 16.7762 3 14.4883 3V7ZM5.0021 7.42611C5.00013 7.3587 5.01605 7.28953 5.11765 7.19981C5.23706 7.09436 5.4461 7 5.70009 7V3C3.43152 3 0.920189 4.68981 1.00382 7.5433L5.0021 7.42611ZM18.9018 22.0732C21.3885 22.5499 23.2571 21.1151 24.074 19.3253C24.8558 17.6124 24.807 15.3963 23.6515 13.5919L20.283 15.749C20.6698 16.3531 20.6811 17.1255 20.4351 17.6644C20.3197 17.9173 20.1813 18.0454 20.0868 18.1009C20.0161 18.1425 19.897 18.1911 19.6549 18.1447L18.9018 22.0732Z" fill="#313131" mask="url(#path-1-inside-1_189_103)"/>
<path d="M2.72187 11H23C20.0116 3.22256 18.1973 0.873148 17.6637 0.670622C10.4062 -0.787643 3.2555 0.468085 0.58733 1.27823C-1.1203 2.7365 1.29884 8.36702 2.72187 11Z" fill="#6E9FE5"/>
</svg>
